<mxfile host="app.diagrams.net" modified="2024-06-04T18:38:33.627Z" agent="Mozilla/5.0 (Windows NT 10.0; Win64; x64) AppleWebKit/537.36 (KHTML, like Gecko) Chrome/125.0.0.0 Safari/537.36" etag="fWOffV8tPSvAPbF-Ozbf" version="24.4.13" type="github">
  <diagram id="6I0OCvxSQrVGMHxT2VVA" name="Page-1">
    <mxGraphModel dx="1034" dy="446" grid="1" gridSize="10" guides="1" tooltips="1" connect="1" arrows="1" fold="1" page="1" pageScale="1" pageWidth="850" pageHeight="1100" math="0" shadow="0">
      <root>
        <mxCell id="0" />
        <mxCell id="1" parent="0" />
        <mxCell id="dKdSaXE48SgPbhcamS2K-63" value="Ordering System" style="text;strokeColor=none;fillColor=none;html=1;fontSize=24;fontStyle=1;verticalAlign=middle;align=center;" parent="1" vertex="1">
          <mxGeometry x="370" y="40" width="390" height="40" as="geometry" />
        </mxCell>
        <mxCell id="JJHw6PLQMsOqmiW-ej_R-2" value="&lt;h1 style=&quot;margin-top: 0px;&quot;&gt;Problems&lt;/h1&gt;&lt;p&gt;&lt;/p&gt;&lt;ul&gt;&lt;li&gt;Slow Time to market&lt;/li&gt;&lt;li&gt;High Run Cost&lt;/li&gt;&lt;/ul&gt;&lt;p&gt;&lt;/p&gt;" style="text;html=1;whiteSpace=wrap;overflow=hidden;rounded=0;" vertex="1" parent="1">
          <mxGeometry x="130" y="120" width="180" height="100" as="geometry" />
        </mxCell>
        <mxCell id="JJHw6PLQMsOqmiW-ej_R-3" value="&lt;h1 style=&quot;margin-top: 0px;&quot;&gt;Objectives&lt;/h1&gt;&lt;p&gt;&lt;/p&gt;&lt;ul&gt;&lt;li&gt;Marketing Department: Reduce setup time for promotion from 2 months to 2 weeks&lt;/li&gt;&lt;li&gt;IT Department: Reduce run costs using cloud computing&lt;/li&gt;&lt;/ul&gt;&lt;p&gt;&lt;/p&gt;" style="text;html=1;whiteSpace=wrap;overflow=hidden;rounded=0;" vertex="1" parent="1">
          <mxGeometry x="682" y="120" width="388" height="100" as="geometry" />
        </mxCell>
        <mxCell id="JJHw6PLQMsOqmiW-ej_R-5" value="" style="ellipse;shape=cloud;whiteSpace=wrap;html=1;" vertex="1" parent="1">
          <mxGeometry x="20" y="320" width="520" height="360" as="geometry" />
        </mxCell>
        <mxCell id="JJHw6PLQMsOqmiW-ej_R-6" value="" style="rounded=1;whiteSpace=wrap;html=1;" vertex="1" parent="1">
          <mxGeometry x="110" y="440" width="350" height="130" as="geometry" />
        </mxCell>
        <mxCell id="JJHw6PLQMsOqmiW-ej_R-7" value="" style="rounded=0;whiteSpace=wrap;html=1;" vertex="1" parent="1">
          <mxGeometry x="140" y="470" width="120" height="60" as="geometry" />
        </mxCell>
        <mxCell id="JJHw6PLQMsOqmiW-ej_R-13" style="edgeStyle=orthogonalEdgeStyle;rounded=0;orthogonalLoop=1;jettySize=auto;html=1;exitX=0;exitY=0.5;exitDx=0;exitDy=0;entryX=1;entryY=0.5;entryDx=0;entryDy=0;" edge="1" parent="1" source="JJHw6PLQMsOqmiW-ej_R-10" target="JJHw6PLQMsOqmiW-ej_R-7">
          <mxGeometry relative="1" as="geometry" />
        </mxCell>
        <mxCell id="JJHw6PLQMsOqmiW-ej_R-10" value="" style="rounded=0;whiteSpace=wrap;html=1;" vertex="1" parent="1">
          <mxGeometry x="305" y="470" width="120" height="60" as="geometry" />
        </mxCell>
        <mxCell id="JJHw6PLQMsOqmiW-ej_R-11" value="Price Calculation" style="text;html=1;align=center;verticalAlign=middle;whiteSpace=wrap;rounded=0;" vertex="1" parent="1">
          <mxGeometry x="160" y="485" width="90" height="30" as="geometry" />
        </mxCell>
        <mxCell id="JJHw6PLQMsOqmiW-ej_R-12" value="Master Data" style="text;html=1;align=center;verticalAlign=middle;whiteSpace=wrap;rounded=0;" vertex="1" parent="1">
          <mxGeometry x="330" y="485" width="60" height="30" as="geometry" />
        </mxCell>
        <mxCell id="JJHw6PLQMsOqmiW-ej_R-14" value="&lt;h1 style=&quot;margin-top: 0px;&quot;&gt;Old System&lt;/h1&gt;" style="text;html=1;whiteSpace=wrap;overflow=hidden;rounded=0;" vertex="1" parent="1">
          <mxGeometry x="220" y="300" width="180" height="40" as="geometry" />
        </mxCell>
        <mxCell id="JJHw6PLQMsOqmiW-ej_R-16" value="Cloud" style="html=1;whiteSpace=wrap;strokeColor=none;fillColor=#0079D6;labelPosition=center;verticalLabelPosition=middle;verticalAlign=top;align=center;fontSize=12;outlineConnect=0;spacingTop=-6;fontColor=#FFFFFF;sketch=0;shape=mxgraph.sitemap.cloud;" vertex="1" parent="1">
          <mxGeometry x="530" y="370" width="260" height="150" as="geometry" />
        </mxCell>
        <mxCell id="JJHw6PLQMsOqmiW-ej_R-17" value="Cloud" style="html=1;whiteSpace=wrap;strokeColor=none;fillColor=#0079D6;labelPosition=center;verticalLabelPosition=middle;verticalAlign=top;align=center;fontSize=12;outlineConnect=0;spacingTop=-6;fontColor=#FFFFFF;sketch=0;shape=mxgraph.sitemap.cloud;" vertex="1" parent="1">
          <mxGeometry x="820" y="515" width="250" height="175" as="geometry" />
        </mxCell>
        <mxCell id="JJHw6PLQMsOqmiW-ej_R-18" value="Price Calculation" style="text;html=1;align=center;verticalAlign=middle;whiteSpace=wrap;rounded=0;" vertex="1" parent="1">
          <mxGeometry x="610" y="450" width="100" height="30" as="geometry" />
        </mxCell>
        <mxCell id="JJHw6PLQMsOqmiW-ej_R-19" value="Master Data" style="text;html=1;align=center;verticalAlign=middle;whiteSpace=wrap;rounded=0;" vertex="1" parent="1">
          <mxGeometry x="900" y="620" width="100" height="30" as="geometry" />
        </mxCell>
        <mxCell id="JJHw6PLQMsOqmiW-ej_R-20" value="&lt;h1 style=&quot;margin-top: 0px;&quot;&gt;New System&lt;/h1&gt;" style="text;html=1;whiteSpace=wrap;overflow=hidden;rounded=0;" vertex="1" parent="1">
          <mxGeometry x="780" y="300" width="180" height="40" as="geometry" />
        </mxCell>
      </root>
    </mxGraphModel>
  </diagram>
</mxfile>
